<svg xmlns="http://www.w3.org/2000/svg" viewBox="0 0 200 240">
  <defs>
    <linearGradient id="shieldGradient" x1="0%" y1="0%" x2="100%" y2="100%">
      <stop offset="0%" style="stop-color:#2563EB;stop-opacity:1" />
      <stop offset="100%" style="stop-color:#1d4ed8;stop-opacity:1" />
    </linearGradient>
    <linearGradient id="houseGradient" x1="0%" y1="0%" x2="100%" y2="100%">
      <stop offset="0%" style="stop-color:#1d4ed8;stop-opacity:1" />
      <stop offset="100%" style="stop-color:#134cca;stop-opacity:1" />
    </linearGradient>
  </defs>
  
  <!-- Shield outline -->
  <path d="M20 20 C20 20, 50 10, 100 10 C150 10, 180 20, 180 20 L180 100 C180 140, 160 180, 100 220 C40 180, 20 140, 20 100 Z" 
        fill="url(#shieldGradient)" stroke="#ffffff" stroke-width="3"/>
  
  <!-- Inner house shape -->
  <path d="M60 60 L100 40 L140 60 L140 150 L60 150 Z" 
        fill="url(#houseGradient)"/>
  
  <!-- Magnifying glass -->
  <circle cx="110" cy="90" r="15" fill="none" stroke="#ffffff" stroke-width="4"/>
  <line x1="122" y1="102" x2="135" y2="115" stroke="#ffffff" stroke-width="4" stroke-linecap="round"/>
  
  <!-- House details -->
  <rect x="80" y="120" width="15" height="20" fill="#ffffff"/>
  <polygon points="85,80 100,70 115,80 115,110 85,110" fill="#ffffff"/>
</svg>
