<svg xmlns="http://www.w3.org/2000/svg" viewBox="0 0 400 480" width="400" height="480">
  <defs>
    <linearGradient id="shieldGradient" x1="0%" y1="0%" x2="100%" y2="100%">
      <stop offset="0%" style="stop-color:#2563EB;stop-opacity:1" />
      <stop offset="100%" style="stop-color:#1d4ed8;stop-opacity:1" />
    </linearGradient>
    <linearGradient id="houseGradient" x1="0%" y1="0%" x2="100%" y2="100%">
      <stop offset="0%" style="stop-color:#1d4ed8;stop-opacity:1" />
      <stop offset="100%" style="stop-color:#134cca;stop-opacity:1" />
    </linearGradient>
  </defs>
  
  <!-- Shield outline -->
  <path d="M40 40 C40 40, 100 20, 200 20 C300 20, 360 40, 360 40 L360 200 C360 280, 320 360, 200 440 C80 360, 40 280, 40 200 Z" 
        fill="url(#shieldGradient)" stroke="#ffffff" stroke-width="6"/>
  
  <!-- Inner house shield -->
  <path d="M120 120 L200 80 L280 120 L280 300 L120 300 Z" 
        fill="url(#houseGradient)"/>
  
  <!-- Magnifying glass circle -->
  <circle cx="220" cy="180" r="30" fill="none" stroke="#ffffff" stroke-width="8"/>
  
  <!-- Magnifying glass handle -->
  <line x1="244" y1="204" x2="270" y2="230" stroke="#ffffff" stroke-width="8" stroke-linecap="round"/>
  
  <!-- House details - door -->
  <rect x="180" y="240" width="30" height="40" fill="#ffffff"/>
  
  <!-- House details - roof -->
  <polygon points="170,160 200,140 230,160 230,220 170,220" fill="#ffffff"/>
</svg>
